<?xml version="1.0"?>
<!DOCTYPE svg PUBLIC "-//W3C//DTD SVG 1.1//EN" "http://www.w3.org/Graphics/SVG/1.1/DTD/svg11.dtd">
<svg xmlns="http://www.w3.org/2000/svg" xmlns:xl="http://www.w3.org/1999/xlink" version="1.1" viewBox="41 403 122 154" width="122pt" height="154pt" class="logo">
  <defs></defs>
  <g stroke="none" stroke-opacity="1" stroke-dasharray="none" fill-opacity="1">
	  <circle cx="126.63533" cy="458.75377" r="32.365616" class="node-inner"/>
	  <circle cx="83.1024" cy="526.604" r="26.895987" class="node-inner"/>
	  <circle cx="62.714058" cy="425.21415" r="18.714163" class="node-inner"/>
	  <circle cx="91.557016" cy="419.69959" r="5.0627656" fill="#5b87f2"/>
	  <circle cx="104.57301" cy="424.03876" r="5.0627656" fill="#5b87f2"/>
	  <circle cx="55.755746" cy="452.9697" r="5.0627656" fill="#5b87f2"/>
	  <circle cx="55.755746" cy="467.07017" r="5.0627656" fill="#5b87f2"/>
	  <circle cx="58.64808" cy="482.62043" r="5.0627656" fill="#5b87f2"/>
	  <circle cx="65.87916" cy="495.63926" r="5.0627656" fill="#5b87f2"/>
	  <circle cx="118.67652" cy="512.63624" r="5.0627656" fill="#5b87f2"/>
	  <circle cx="127.35705" cy="501.78556" r="5.0627656" fill="#5b87f2"/>
	  <circle cx="83.102394" cy="526.604" r="26.895992" stroke="#5b87f2" stroke-linecap="round" stroke-linejoin="round" stroke-width="3"/>
	  <path d="M 154.176255 441.73914 C 152.88412 439.65159 151.33242 437.67907 149.52118 435.86783 C 136.88167 423.2282 116.389024 423.2282 103.74953 435.86783 C 91.109954 448.5074 91.109954 469.00014 103.74953 481.63973 C 104.89654 482.78674 106.10819 483.82966 107.37279 484.7685 C 99.64778 472.28827 101.199466 455.69617 112.027814 444.86783 C 123.520325 433.3752 141.50541 432.33227 154.176255 441.73912 Z" fill="#900"/>
	  <circle cx="126.63533" cy="458.75377" r="32.365616" stroke="#5b87f2" stroke-linecap="round" stroke-linejoin="round" stroke-width="3"/>
	  <path d="M 78.487866 415.67724 C 77.757474 414.49723 76.880363 413.38225 75.85654 412.35843 C 68.711946 405.21376 57.128294 405.21376 49.983707 412.35843 C 42.839072 419.50306 42.839072 431.08677 49.983707 438.2314 C 50.632064 438.87977 51.316962 439.46929 52.031788 439.99997 C 47.665157 432.94542 48.54226 423.56658 54.66308 417.44576 C 61.159326 410.94944 71.32556 410.35992 78.487866 415.67723 Z" fill="#900"/>
	  <circle cx="62.714058" cy="425.21415" r="18.714163" stroke="#5b87f2" stroke-linecap="round" stroke-linejoin="round" stroke-width="3"/>
	  <path d="M 104.91025 512.99637 C 103.88164 511.33458 102.64641 509.76435 101.20457 508.3225 C 91.142876 498.26072 74.829684 498.26072 64.768004 508.3225 C 54.706255 518.38425 54.706255 534.69752 64.768004 544.75928 C 65.68108 545.67236 66.64562 546.50258 67.652304 547.24994 C 61.502802 537.31505 62.73802 524.1069 71.35794 515.48697 C 80.506564 506.33824 94.82361 505.50803 104.91025 512.99636 Z" fill="#900"/>
</g>
</svg>
