<?xml version="1.0"?>
<!DOCTYPE svg PUBLIC "-//W3C//DTD SVG 1.1//EN" "http://www.w3.org/Graphics/SVG/1.1/DTD/svg11.dtd">
<svg xmlns="http://www.w3.org/2000/svg" xmlns:xl="http://www.w3.org/1999/xlink" version="1.1" viewBox="41 29 125 154" width="125pt" height="154pt"><metadata xmlns:dc="http://purl.org/dc/elements/1.1/"><dc:date>2012-06-24 17:23Z</dc:date><!-- Produced by OmniGraffle Professional 5.4 --></metadata><defs></defs>
<g stroke="none" stroke-opacity="1" stroke-dasharray="none" fill="none" fill-opacity="1"><title>Canvas 1</title>
<g><title>Layer 1</title>
  <circle cx="91.557016" cy="45.320086" r="5.0627656" fill="#5b87f2"/>
  <circle cx="104.57301" cy="49.659258" r="5.0627656" fill="#5b87f2"/>
  <circle cx="55.755746" cy="78.59023" r="5.0627656" fill="#5b87f2"/>
  <circle cx="55.755746" cy="92.690676" r="5.0627656" fill="#5b87f2"/>
  <circle cx="58.64808" cy="108.24096" r="5.0627656" fill="#5b87f2"/>
  <circle cx="65.87916" cy="121.25976" r="5.0627656" fill="#5b87f2"/>
  <circle cx="118.67652" cy="138.25673" r="5.0627656" fill="#5b87f2"/>
  <circle cx="127.35707" cy="127.40609" r="5.0627656" fill="#5b87f2"/>
  
  <circle cx="129.63533" cy="84.374286" r="32.365616" fill="#ff8000"/>
  <circle cx="62.714058" cy="50.834676" r="18.714163" fill="#ff8000"/>
  <circle cx="83.102398" cy="152.22447" r="26.895987" fill="#ff8000"/>
  
  <path d="M 157.176255 67.359654 C 155.88412 65.2721 154.33242 63.29959 152.52118 61.488342 C 139.88167 48.84871 119.389024 48.84871 106.74953 61.488342 C 94.109954 74.127904 94.109954 94.620657 106.74953 107.260246 C 107.89654 108.40725 109.10819 109.45017 110.37279 110.38901 C 102.64778 97.90879 104.199466 81.316687 115.027814 70.488345 C 126.520325 58.995706 144.50541 57.952786 157.176255 67.35964 Z" fill="#900"/>
  <path d="M 78.48786 41.29777 C 77.75747 40.117761 76.88036 39.00278 75.856537 37.978957 C 68.711942 30.834292 57.12829 30.834292 49.983703 37.978957 C 42.839068 45.123583 42.839068 56.707297 49.983703 63.85194 C 50.63206 64.500294 51.316958 65.089815 52.031784 65.6205 C 47.665153 58.565944 48.542256 49.187108 54.663076 43.06629 C 61.159322 36.569972 71.325554 35.980452 78.48786 41.297761 Z" fill="#900"/>
  <path d="M 104.91025 138.61693 C 103.88164 136.955135 102.64641 135.384915 101.20457 133.94307 C 91.142876 123.88128 74.829684 123.88128 64.768004 133.94307 C 54.706255 144.00481 54.706255 160.31808 64.768004 170.37984 C 65.68108 171.29292 66.64562 172.12314 67.652304 172.8705 C 61.502802 162.93561 62.73802 149.727445 71.35794 141.10753 C 80.506564 131.958805 94.82361 131.12859 104.91025 138.61692 Z" fill="#900"/>
  <circle cx="129.63533" cy="84.374286" r="32.365616" stroke="#5b87f2" stroke-linecap="round" stroke-linejoin="round" stroke-width="3"/>
  <circle cx="62.714058" cy="50.834676" r="18.714163" stroke="#5b87f2" stroke-linecap="round" stroke-linejoin="round" stroke-width="3"/>
  <circle cx="83.102394" cy="152.22448" r="26.895992" stroke="#5b87f2" stroke-linecap="round" stroke-linejoin="round" stroke-width="3"/>
</g></g></svg>
